<?xml version="1.0" standalone="no"?><!DOCTYPE svg PUBLIC "-//W3C//DTD SVG 1.1//EN" "http://www.w3.org/Graphics/SVG/1.1/DTD/svg11.dtd"><svg t="1528516445256" class="icon" style="" viewBox="0 0 1024 1024" version="1.1" xmlns="http://www.w3.org/2000/svg" p-id="2069" xmlns:xlink="http://www.w3.org/1999/xlink" width="128" height="128"><defs><style type="text/css"></style></defs><path d="M436.555 310.079l426.325 0c37.251 0 67.397-30.198 67.397-67.424s-30.146-67.409-67.397-67.409l-426.325 0c-37.234 0-67.417 30.184-67.417 67.409s30.184 67.424 67.417 67.424zM240.37 175.246l-80.854 0c-37.24 0-67.424 30.184-67.424 67.409s30.184 67.424 67.424 67.424l80.854 0c37.248 0 67.432-30.198 67.432-67.424s-30.184-67.409-67.432-67.409zM862.88 444.912l-426.325 0c-37.234 0-67.417 30.184-67.417 67.409 0 37.228 30.184 67.424 67.417 67.424l426.325 0c37.251 0 67.397-30.196 67.397-67.424 0-37.225-30.147-67.409-67.397-67.409zM240.37 444.912l-80.854 0c-37.24 0-67.424 30.184-67.424 67.409 0 37.228 30.184 67.424 67.424 67.424l80.854 0c37.248 0 67.432-30.196 67.432-67.424 0-37.225-30.184-67.409-67.432-67.409zM862.88 714.565l-426.325 0c-37.234 0-67.417 30.195-67.417 67.416 0 37.234 30.184 67.423 67.417 67.423l426.325 0c37.251 0 67.397-30.189 67.397-67.423 0-37.222-30.147-67.416-67.397-67.416zM240.37 714.565l-80.854 0c-37.24 0-67.424 30.195-67.424 67.416 0 37.234 30.184 67.423 67.424 67.423l80.854 0c37.248 0 67.432-30.189 67.432-67.423 0-37.222-30.184-67.416-67.432-67.416z" p-id="2070"></path></svg>