<?xml version="1.0" standalone="no"?><!DOCTYPE svg PUBLIC "-//W3C//DTD SVG 1.1//EN" "http://www.w3.org/Graphics/SVG/1.1/DTD/svg11.dtd"><svg t="1528620553782" class="icon" style="" viewBox="0 0 1024 1024" version="1.1" xmlns="http://www.w3.org/2000/svg" p-id="1468" xmlns:xlink="http://www.w3.org/1999/xlink" width="128" height="128"><defs><style type="text/css"></style></defs><path d="M507.3408 78.2592c-249.5488 0-451.8656 177.024-451.8656 395.3664 0 124.8 66.2272 235.904 169.4464 308.3776l0 199.9616 197.9648-120.1152c27.392 4.5312 55.5776 7.1424 84.4544 7.1424 249.5488 0 451.8656-177.024 451.8656-395.3664C959.2064 255.2832 756.8896 78.2592 507.3408 78.2592L507.3408 78.2592 507.3408 78.2592 507.3408 78.2592 507.3408 78.2592zM648.5504 614.8352 366.1312 614.8352c-15.5904 0-28.2368-12.6464-28.2368-28.2368 0-15.5904 12.6464-28.2368 28.2368-28.2368l282.4192 0c15.5904 0 28.2368 12.6464 28.2368 28.2368C676.7872 602.1888 664.1408 614.8352 648.5504 614.8352L648.5504 614.8352 648.5504 614.8352 648.5504 614.8352zM705.024 445.3888 309.6576 445.3888c-15.5904 0-28.2368-12.6464-28.2368-28.2368 0-15.5904 12.6464-28.2368 28.2368-28.2368L705.024 388.9152c15.5904 0 28.2368 12.6464 28.2368 28.2368C733.2608 432.7424 720.6144 445.3888 705.024 445.3888L705.024 445.3888 705.024 445.3888 705.024 445.3888z" p-id="1469"></path></svg>